<svg t="1613375158690" class="icon" viewBox="0 0 1024 1024" version="1.1" xmlns="http://www.w3.org/2000/svg" p-id="15105" width="200" height="200"><path d="M704 256A64 64 0 0 1 768 320v512a64 64 0 0 1-64 64h-554.666667A64 64 0 0 1 85.333333 832v-512A64 64 0 0 1 149.333333 256h554.666667z m0 64h-554.666667v512h554.666667v-512zM426.666667 673.450667a42.666667 42.666667 0 1 1 0 85.333333 42.666667 42.666667 0 0 1 0-85.333333zM832 128A64 64 0 0 1 896 192v469.333333a64 64 0 0 1-64 64V192H298.666667A64 64 0 0 1 362.666667 128h469.333333z m-373.333333 273.194667v229.546666h-64v-229.546666h64z" p-id="15106" fill="#ffffff"></path></svg>
