<svg t="1613372608481" class="icon" viewBox="0 0 1024 1024" version="1.1" xmlns="http://www.w3.org/2000/svg" p-id="3394" width="200" height="200"><path d="M948.313043 442.991304l-369.530435 0 0-369.530435c0-37.843478-31.165217-69.008696-69.008696-69.008696-37.843478 0-69.008696 31.165217-69.008696 69.008696l0 369.530435-369.530435 0c-37.843478 0-69.008696 31.165217-69.008696 69.008696 0 37.843478 31.165217 69.008696 69.008696 69.008696l369.530435 0 0 369.530435c0 37.843478 31.165217 69.008696 69.008696 69.008696 37.843478 0 69.008696-31.165217 69.008696-69.008696l0-369.530435 369.530435 0c37.843478 0 69.008696-31.165217 69.008696-69.008696C1017.321739 474.156522 988.382609 442.991304 948.313043 442.991304z" p-id="3395" fill="#ffffff"></path></svg>
