<svg t="1613443933296" class="icon" viewBox="0 0 1024 1024" version="1.1" xmlns="http://www.w3.org/2000/svg" p-id="4005" width="200" height="200"><path d="M896 277.333333H341.333333c-12.8 0-21.333333-8.533333-21.333333-21.333333s8.533333-21.333333 21.333333-21.333333h554.666667c12.8 0 21.333333 8.533333 21.333333 21.333333s-8.533333 21.333333-21.333333 21.333333zM896 533.333333H341.333333c-12.8 0-21.333333-8.533333-21.333333-21.333333s8.533333-21.333333 21.333333-21.333333h554.666667c12.8 0 21.333333 8.533333 21.333333 21.333333s-8.533333 21.333333-21.333333 21.333333zM896 789.333333H341.333333c-12.8 0-21.333333-8.533333-21.333333-21.333333s8.533333-21.333333 21.333333-21.333333h554.666667c12.8 0 21.333333 8.533333 21.333333 21.333333s-8.533333 21.333333-21.333333 21.333333zM128 277.333333c-4.266667 0-12.8-4.266667-17.066667-8.533333-4.266667 0-4.266667-8.533333-4.266666-12.8v-8.533333c0-4.266667 4.266667-4.266667 4.266666-8.533334 8.533333-4.266667 17.066667-4.266667 25.6-4.266666 4.266667 0 4.266667 4.266667 8.533334 4.266666s4.266667 4.266667 4.266666 8.533334V256c0 4.266667-4.266667 12.8-8.533333 12.8 0 4.266667-4.266667 4.266667-8.533333 4.266667 0 4.266667 0 4.266667-4.266667 4.266666zM128 533.333333h-8.533333c-4.266667 0-4.266667-4.266667-8.533334-4.266666s-4.266667-4.266667-4.266666-8.533334V512v-8.533333c0-4.266667 4.266667-4.266667 4.266666-8.533334 4.266667-4.266667 17.066667-8.533333 21.333334-4.266666 4.266667 0 4.266667 4.266667 8.533333 4.266666s4.266667 4.266667 4.266667 8.533334v17.066666c0 4.266667-4.266667 4.266667-4.266667 8.533334 0 0-8.533333 4.266667-12.8 4.266666zM128 789.333333h-8.533333c-4.266667 0-4.266667-4.266667-8.533334-4.266666s-4.266667-4.266667-4.266666-8.533334V768c0-4.266667 0-12.8 4.266666-17.066667 0 0 4.266667-4.266667 8.533334-4.266666h17.066666c4.266667 0 4.266667 4.266667 8.533334 4.266666 4.266667 4.266667 8.533333 8.533333 8.533333 17.066667v8.533333c0 4.266667-4.266667 4.266667-4.266667 8.533334 0 0-4.266667 4.266667-8.533333 4.266666H128z" p-id="4006"></path></svg>
