<svg t="1613374880897" class="icon" viewBox="0 0 1024 1024" version="1.1" xmlns="http://www.w3.org/2000/svg" p-id="12273" width="200" height="200"><path d="M605.184 1016.3456c10.3424-1.9712 20.6848-3.9424 30.5408-6.4 6.4-1.4848 12.3136-5.888 15.7696-11.3152 3.456-5.9136 4.4288-12.8 2.944-19.2a25.3184 25.3184 0 0 0-24.6272-19.2256 24.6784 24.6784 0 0 0-5.888 0.9728 275.456 275.456 0 0 1-27.5968 5.9136 25.2672 25.2672 0 0 0-20.224 29.568c1.024 6.4 4.9408 12.288 10.368 16.256 4.4288 2.944 9.344 4.4288 14.2848 4.4288 1.4848-0.512 2.944-0.512 4.4288-0.9984z m369.4592-631.04a22.272 22.272 0 0 0 7.8848-1.4848 25.3952 25.3952 0 0 0 16.256-32.0256c-3.4304-9.856-6.8864-19.712-10.8288-29.568a25.1136 25.1136 0 0 0-23.6544-15.744c-3.4304 0-6.4 0.4864-9.344 1.9712a24.4224 24.4224 0 0 0-13.824 13.312c-2.432 5.888-2.944 13.2864 0 19.2 3.4816 8.8576 6.912 17.7152 9.8816 26.5984 1.4848 4.9152 4.9152 9.344 9.344 12.8a21.0432 21.0432 0 0 0 14.2848 4.9408zM755.968 959.6928a23.8848 23.8848 0 0 0 12.8-3.4304c8.8576-5.4272 18.2272-10.8544 26.5984-16.256 5.4272-3.9424 9.344-9.3696 10.8288-16.256 1.4848-6.4 0-13.312-3.4304-19.2256-4.9408-6.912-12.8-11.3408-21.1968-11.3408a23.04 23.04 0 0 0-13.7984 4.4544 243.3536 243.3536 0 0 1-24.1408 14.7712 25.1904 25.1904 0 0 0-9.344 34.4832c1.9712 3.456 4.4288 5.888 7.3728 7.8848a23.808 23.808 0 0 0 14.3104 4.9152z m228.5568-415.2832a23.04 23.04 0 0 0 13.824 4.4288h0.4608a25.1392 25.1392 0 0 0 25.1392-24.6272c0-10.3424 0-20.6848-0.512-31.0272a25.0368 25.0368 0 0 0-25.088-24.1408h-1.024a25.2416 25.2416 0 0 0-24.1152 26.112c0.4864 9.344 0.4864 18.7136 0 28.0832 0.4864 8.3712 4.4288 16.256 11.3152 21.1712z m-67.4816 240.384a24.6272 24.6272 0 0 0-15.2832-4.8896c-7.8592 0-15.2576 3.9424-20.1728 10.3424-5.4272 7.3728-11.3408 14.7712-17.7408 22.1696-8.8832 10.8288-7.8848 26.5984 2.944 35.456 0.512 0.512 0.9984 0.9984 1.9712 1.4848 4.4288 2.944 9.3696 4.4288 14.7968 4.4288 7.3728 0 14.2848-3.456 19.2-8.8576 6.912-7.8848 13.312-16.256 19.712-24.6272 7.8848-10.8544 5.4016-27.1104-5.4272-35.4816z m67.4816-151.2192c-2.4576-0.9728-4.9152-0.9728-7.3728-0.9728a24.832 24.832 0 0 0-24.1408 17.7152c-2.9696 8.8832-5.9136 17.7408-9.3696 26.624-3.9424 10.8288-0.512 23.1424 8.8576 29.5424 1.4848 0.9984 3.456 1.9712 5.4272 2.9696 2.944 0.9728 5.9136 1.4592 8.8832 1.4592 10.3424 0 19.712-6.4 23.6288-16.256 3.456-9.344 6.912-19.2 10.3424-29.5424 4.4544-12.8-2.944-27.1104-16.256-31.5392z m-103.424-450.7392a7.68 7.68 0 0 0 5.888-2.9696 7.0656 7.0656 0 0 0 0.512-6.4L850.4832 40.448l-38.912 56.1664-14.2848-9.3696A509.4144 509.4144 0 0 0 513.024 0.5632c-29.5424 0-59.1104 2.4576-88.6528 7.8592-12.8 2.4832-26.112 4.9408-38.912 8.3968L384 17.3056C270.208 46.336 172.6464 111.872 102.2208 205.9776l-0.9984 1.4848c0 0.4864-0.512 0.4864-0.512 0.9728-2.432 3.456-4.9152 6.4-6.8608 9.856-3.9424 5.4272-7.424 10.8288-10.8544 16.256l-0.9728 1.9712C23.8848 326.1696-3.712 429.6192 0.7168 536.064v1.4848c0.512 9.856 1.4848 20.1984 2.4832 30.5408l0.4864 1.9712c0.9728 10.8288 2.4576 21.1712 4.4288 31.0272 18.2272 105.4208 67.9936 200.9856 143.36 275.3792l0.512 0.512a535.296 535.296 0 0 0 65.5104 54.656c61.568 43.3664 130.56 72.448 203.9296 85.248 1.4848 0.4864 2.9696 0.4864 4.4544 0.4864a24.9088 24.9088 0 0 0 24.6272-20.6848 27.136 27.136 0 0 0-3.9424-18.7392 25.3696 25.3696 0 0 0-16.256-10.3424c-39.424-6.912-77.3376-19.2-113.3056-35.968l-0.512-0.4864c-0.4864 0-0.4864-0.512-0.9728-0.512a275.968 275.968 0 0 1-24.1408-12.288h-0.512l-2.432-1.4848a449.4848 449.4848 0 0 1-41.3952-26.112c-100.48-70.9376-167.4752-176.8448-188.672-298.5216A456.96 456.96 0 0 1 135.7056 247.8592a456.5504 456.5504 0 0 1 113.3056-112.8192l1.4848-0.9984A460.2624 460.2624 0 0 1 513.536 52.2752c91.136 0 179.3024 26.624 255.1808 77.3376l14.7712 9.856-38.912 56.6528 136.448-13.312z m-99.5328 512.3328a16.896 16.896 0 0 0 15.2832-9.3696 17.2032 17.2032 0 0 0-7.424-23.1424l-285.696-147.7888V203.008a17.4592 17.4592 0 0 0-17.2544-17.2544 17.4592 17.4592 0 0 0-17.2288 17.2544V535.552l304.4352 157.6448a14.464 14.464 0 0 0 7.8848 1.9712z" p-id="12274" fill="#ffffff"></path></svg>
