<svg t="1613376574952" class="icon" viewBox="0 0 1024 1024" version="1.1" xmlns="http://www.w3.org/2000/svg" p-id="17847" width="200" height="200"><path d="M298.666667 369.578667C309.546667 285.098667 384.512 213.333333 512.597333 213.333333c117.674667 0 184.405333 77.696 198.272 124.842667 13.866667 47.146667 4.394667 101.162667-24.832 139.264-48.384 65.706667-108.8 76.672-121.472 142.848-1.536 7.978667-11.776 34.773333-51.968 34.773333-26.794667 0-45.226667-11.605333-55.210666-34.773333 0-55.210667 43.349333-85.077333 96.170666-130.645333 55.722667-39.466667 70.016-51.2 70.016-105.216 0-52.437333-66.218667-77.909333-110.933333-77.909334-58.88 0-100.650667 36.352-111.317333 75.264-0.853333 3.072-12.970667 34.005333-57.386667 34.005334-44.373333 0-45.568-43.221333-45.226667-46.208z m265.429333 385.408c0 30.762667-24.96 55.68-55.722667 55.68h-11.776a55.722667 55.722667 0 0 1 0-111.402667h11.776c30.762667 0 55.722667 24.917333 55.722667 55.722667z" p-id="17848" fill="#ffffff"></path></svg>
